  0
SECTION
  2
HEADER
  9
$ACADVER
  1
AC1009
  9
$EXTMIN
 10
0.0
 20
0.0
 30
0.0
  9
$EXTMAX
 10
1000.0
 20
1000.0
 30
0.0
  9
$FILLMODE
 70
 0
  9
$SPLFRAME
 70
 1
  0
ENDSEC
  0
SECTION
  2
TABLES
  0
TABLE
  2
LAYER
 70
1
  0
LAYER
  2
0
 70
     0
 62
     7
  6
CONTINUOUS
  0
ENDTAB
  0
ENDSEC
  0
SECTION
  2
ENTITIES
  0
LINE
  8
0
 62
     0
 10
150.971
 20
91.0608
 30
0.0
 11
151.127
 21
91.0551
 31
0.0
  0
LINE
  8
0
 62
     0
 10
151.127
 20
91.0551
 30
0.0
 11
151.282
 21
91.0375
 31
0.0
  0
LINE
  8
0
 62
     0
 10
151.282
 20
91.0375
 30
0.0
 11
151.437
 21
91.0057
 31
0.0
  0
LINE
  8
0
 62
     0
 10
151.437
 20
91.0057
 30
0.0
 11
151.588
 21
90.9645
 31
0.0
  0
LINE
  8
0
 62
     0
 10
151.588
 20
90.9645
 30
0.0
 11
151.736
 21
90.9091
 31
0.0
  0
LINE
  8
0
 62
     0
 10
151.736
 20
90.9091
 30
0.0
 11
151.878
 21
90.8445
 31
0.0
  0
LINE
  8
0
 62
     0
 10
151.878
 20
90.8445
 30
0.0
 11
152.014
 21
90.7673
 31
0.0
  0
LINE
  8
0
 62
     0
 10
152.014
 20
90.7673
 30
0.0
 11
152.145
 21
90.6805
 31
0.0
  0
LINE
  8
0
 62
     0
 10
152.145
 20
90.6805
 30
0.0
 11
152.269
 21
90.5827
 31
0.0
  0
LINE
  8
0
 62
     0
 10
152.269
 20
90.5827
 30
0.0
 11
152.385
 21
90.4766
 31
0.0
  0
LINE
  8
0
 62
     0
 10
152.385
 20
90.4766
 30
0.0
 11
152.491
 21
90.3609
 31
0.0
  0
LINE
  8
0
 62
     0
 10
152.491
 20
90.3609
 30
0.0
 11
152.589
 21
90.2367
 31
0.0
  0
LINE
  8
0
 62
     0
 10
152.589
 20
90.2367
 30
0.0
 11
152.676
 21
90.1058
 31
0.0
  0
LINE
  8
0
 62
     0
 10
152.676
 20
90.1058
 30
0.0
 11
152.753
 21
89.9693
 31
0.0
  0
LINE
  8
0
 62
     0
 10
152.753
 20
89.9693
 30
0.0
 11
152.818
 21
89.8275
 31
0.0
  0
LINE
  8
0
 62
     0
 10
152.818
 20
89.8275
 30
0.0
 11
152.873
 21
89.68
 31
0.0
  0
LINE
  8
0
 62
     0
 10
152.873
 20
89.68
 30
0.0
 11
152.915
 21
89.5283
 31
0.0
  0
LINE
  8
0
 62
     0
 10
152.915
 20
89.5283
 30
0.0
 11
152.946
 21
89.3741
 31
0.0
  0
LINE
  8
0
 62
     0
 10
152.946
 20
89.3741
 30
0.0
 11
152.964
 21
89.2182
 31
0.0
  0
LINE
  8
0
 62
     0
 10
152.964
 20
89.2182
 30
0.0
 11
152.97
 21
89.0612
 31
0.0
  0
LINE
  8
0
 62
     0
 10
152.97
 20
89.0612
 30
0.0
 11
152.97
 21
2.09875
 31
0.0
  0
LINE
  8
0
 62
     0
 10
152.97
 20
2.09875
 30
0.0
 11
152.964
 21
1.94166
 31
0.0
  0
LINE
  8
0
 62
     0
 10
152.964
 20
1.94166
 30
0.0
 11
152.946
 21
1.78456
 31
0.0
  0
LINE
  8
0
 62
     0
 10
152.946
 20
1.78456
 30
0.0
 11
152.915
 21
1.6316
 31
0.0
  0
LINE
  8
0
 62
     0
 10
152.915
 20
1.6316
 30
0.0
 11
152.873
 21
1.48001
 31
0.0
  0
LINE
  8
0
 62
     0
 10
152.873
 20
1.48001
 30
0.0
 11
152.818
 21
1.33256
 31
0.0
  0
LINE
  8
0
 62
     0
 10
152.818
 20
1.33256
 30
0.0
 11
152.753
 21
1.19063
 31
0.0
  0
LINE
  8
0
 62
     0
 10
152.753
 20
1.19063
 30
0.0
 11
152.676
 21
1.05282
 31
0.0
  0
LINE
  8
0
 62
     0
 10
152.676
 20
1.05282
 30
0.0
 11
152.589
 21
0.921907
 31
0.0
  0
LINE
  8
0
 62
     0
 10
152.589
 20
0.921907
 30
0.0
 11
152.491
 21
0.799264
 31
0.0
  0
LINE
  8
0
 62
     0
 10
152.491
 20
0.799264
 30
0.0
 11
152.385
 21
0.683507
 31
0.0
  0
LINE
  8
0
 62
     0
 10
152.385
 20
0.683507
 30
0.0
 11
152.269
 21
0.577398
 31
0.0
  0
LINE
  8
0
 62
     0
 10
152.269
 20
0.577398
 30
0.0
 11
152.145
 21
0.479559
 31
0.0
  0
LINE
  8
0
 62
     0
 10
152.145
 20
0.479559
 30
0.0
 11
152.014
 21
0.39274
 31
0.0
  0
LINE
  8
0
 62
     0
 10
152.014
 20
0.39274
 30
0.0
 11
151.878
 21
0.315571
 31
0.0
  0
LINE
  8
0
 62
     0
 10
151.878
 20
0.315571
 30
0.0
 11
151.736
 21
0.249425
 31
0.0
  0
LINE
  8
0
 62
     0
 10
151.736
 20
0.249425
 30
0.0
 11
151.588
 21
0.195682
 31
0.0
  0
LINE
  8
0
 62
     0
 10
151.588
 20
0.195682
 30
0.0
 11
151.437
 21
0.152962
 31
0.0
  0
LINE
  8
0
 62
     0
 10
151.437
 20
0.152962
 30
0.0
 11
151.282
 21
0.122645
 31
0.0
  0
LINE
  8
0
 62
     0
 10
151.282
 20
0.122645
 30
0.0
 11
151.127
 21
0.104731
 31
0.0
  0
LINE
  8
0
 62
     0
 10
151.127
 20
0.104731
 30
0.0
 11
150.969
 21
0.0978408
 31
0.0
  0
LINE
  8
0
 62
     0
 10
150.969
 20
0.0978408
 30
0.0
 11
2.09462
 21
0.0978408
 31
0.0
  0
LINE
  8
0
 62
     0
 10
2.09462
 20
0.0978408
 30
0.0
 11
1.93752
 21
0.104731
 31
0.0
  0
LINE
  8
0
 62
     0
 10
1.93752
 20
0.104731
 30
0.0
 11
1.7818
 21
0.122645
 31
0.0
  0
LINE
  8
0
 62
     0
 10
1.7818
 20
0.122645
 30
0.0
 11
1.62746
 21
0.152962
 31
0.0
  0
LINE
  8
0
 62
     0
 10
1.62746
 20
0.152962
 30
0.0
 11
1.47588
 21
0.195682
 31
0.0
  0
LINE
  8
0
 62
     0
 10
1.47588
 20
0.195682
 30
0.0
 11
1.32843
 21
0.249425
 31
0.0
  0
LINE
  8
0
 62
     0
 10
1.32843
 20
0.249425
 30
0.0
 11
1.18649
 21
0.315571
 31
0.0
  0
LINE
  8
0
 62
     0
 10
1.18649
 20
0.315571
 30
0.0
 11
1.05006
 21
0.39274
 31
0.0
  0
LINE
  8
0
 62
     0
 10
1.05006
 20
0.39274
 30
0.0
 11
0.919152
 21
0.479559
 31
0.0
  0
LINE
  8
0
 62
     0
 10
0.919152
 20
0.479559
 30
0.0
 11
0.795129
 21
0.577398
 31
0.0
  0
LINE
  8
0
 62
     0
 10
0.795129
 20
0.577398
 30
0.0
 11
0.679372
 21
0.683507
 31
0.0
  0
LINE
  8
0
 62
     0
 10
0.679372
 20
0.683507
 30
0.0
 11
0.573264
 21
0.799264
 31
0.0
  0
LINE
  8
0
 62
     0
 10
0.573264
 20
0.799264
 30
0.0
 11
0.475424
 21
0.921907
 31
0.0
  0
LINE
  8
0
 62
     0
 10
0.475424
 20
0.921907
 30
0.0
 11
0.388606
 21
1.05282
 31
0.0
  0
LINE
  8
0
 62
     0
 10
0.388606
 20
1.05282
 30
0.0
 11
0.311437
 21
1.19063
 31
0.0
  0
LINE
  8
0
 62
     0
 10
0.311437
 20
1.19063
 30
0.0
 11
0.246669
 21
1.33256
 31
0.0
  0
LINE
  8
0
 62
     0
 10
0.246669
 20
1.33256
 30
0.0
 11
0.191547
 21
1.48001
 31
0.0
  0
LINE
  8
0
 62
     0
 10
0.191547
 20
1.48001
 30
0.0
 11
0.150206
 21
1.6316
 31
0.0
  0
LINE
  8
0
 62
     0
 10
0.150206
 20
1.6316
 30
0.0
 11
0.118511
 21
1.78456
 31
0.0
  0
LINE
  8
0
 62
     0
 10
0.118511
 20
1.78456
 30
0.0
 11
0.100597
 21
1.94166
 31
0.0
  0
LINE
  8
0
 62
     0
 10
0.100597
 20
1.94166
 30
0.0
 11
0.0937066
 21
2.09875
 31
0.0
  0
LINE
  8
0
 62
     0
 10
0.0937066
 20
2.09875
 30
0.0
 11
0.0950846
 21
89.0612
 31
0.0
  0
LINE
  8
0
 62
     0
 10
0.0950846
 20
89.0612
 30
0.0
 11
0.100597
 21
89.2182
 31
0.0
  0
LINE
  8
0
 62
     0
 10
0.100597
 20
89.2182
 30
0.0
 11
0.118511
 21
89.3741
 31
0.0
  0
LINE
  8
0
 62
     0
 10
0.118511
 20
89.3741
 30
0.0
 11
0.150206
 21
89.5283
 31
0.0
  0
LINE
  8
0
 62
     0
 10
0.150206
 20
89.5283
 30
0.0
 11
0.191547
 21
89.68
 31
0.0
  0
LINE
  8
0
 62
     0
 10
0.191547
 20
89.68
 30
0.0
 11
0.246669
 21
89.8275
 31
0.0
  0
LINE
  8
0
 62
     0
 10
0.246669
 20
89.8275
 30
0.0
 11
0.311437
 21
89.9693
 31
0.0
  0
LINE
  8
0
 62
     0
 10
0.311437
 20
89.9693
 30
0.0
 11
0.388606
 21
90.1058
 31
0.0
  0
LINE
  8
0
 62
     0
 10
0.388606
 20
90.1058
 30
0.0
 11
0.475424
 21
90.2367
 31
0.0
  0
LINE
  8
0
 62
     0
 10
0.475424
 20
90.2367
 30
0.0
 11
0.573264
 21
90.3609
 31
0.0
  0
LINE
  8
0
 62
     0
 10
0.573264
 20
90.3609
 30
0.0
 11
0.679372
 21
90.4766
 31
0.0
  0
LINE
  8
0
 62
     0
 10
0.679372
 20
90.4766
 30
0.0
 11
0.795129
 21
90.5827
 31
0.0
  0
LINE
  8
0
 62
     0
 10
0.795129
 20
90.5827
 30
0.0
 11
0.919152
 21
90.6805
 31
0.0
  0
LINE
  8
0
 62
     0
 10
0.919152
 20
90.6805
 30
0.0
 11
1.05006
 21
90.7673
 31
0.0
  0
LINE
  8
0
 62
     0
 10
1.05006
 20
90.7673
 30
0.0
 11
1.18649
 21
90.8445
 31
0.0
  0
LINE
  8
0
 62
     0
 10
1.18649
 20
90.8445
 30
0.0
 11
1.32843
 21
90.9091
 31
0.0
  0
LINE
  8
0
 62
     0
 10
1.32843
 20
90.9091
 30
0.0
 11
1.47588
 21
90.9645
 31
0.0
  0
LINE
  8
0
 62
     0
 10
1.47588
 20
90.9645
 30
0.0
 11
1.62746
 21
91.0057
 31
0.0
  0
LINE
  8
0
 62
     0
 10
1.62746
 20
91.0057
 30
0.0
 11
1.7818
 21
91.0375
 31
0.0
  0
LINE
  8
0
 62
     0
 10
1.7818
 20
91.0375
 30
0.0
 11
1.93752
 21
91.0551
 31
0.0
  0
LINE
  8
0
 62
     0
 10
1.93752
 20
91.0551
 30
0.0
 11
2.09462
 21
91.0622
 31
0.0
  0
LINE
  8
0
 62
     0
 10
2.09462
 20
91.0622
 30
0.0
 11
150.971
 21
91.0608
 31
0.0
  0
LINE
  8
0
 62
     0
 10
150.006
 20
4.02527
 30
0.0
 11
149.589
 21
3.81166
 31
0.0
  0
LINE
  8
0
 62
     0
 10
149.589
 20
3.81166
 30
0.0
 11
149.257
 21
3.47955
 31
0.0
  0
LINE
  8
0
 62
     0
 10
149.257
 20
3.47955
 30
0.0
 11
149.043
 21
3.062
 31
0.0
  0
LINE
  8
0
 62
     0
 10
149.043
 20
3.062
 30
0.0
 11
148.97
 21
2.5976
 31
0.0
  0
LINE
  8
0
 62
     0
 10
148.97
 20
2.5976
 30
0.0
 11
149.043
 21
2.13458
 31
0.0
  0
LINE
  8
0
 62
     0
 10
149.043
 20
2.13458
 30
0.0
 11
149.257
 21
1.71566
 31
0.0
  0
LINE
  8
0
 62
     0
 10
149.257
 20
1.71566
 30
0.0
 11
149.589
 21
1.38355
 31
0.0
  0
LINE
  8
0
 62
     0
 10
149.589
 20
1.38355
 30
0.0
 11
150.006
 21
1.17133
 31
0.0
  0
LINE
  8
0
 62
     0
 10
150.006
 20
1.17133
 30
0.0
 11
150.471
 21
1.0983
 31
0.0
  0
LINE
  8
0
 62
     0
 10
150.471
 20
1.0983
 30
0.0
 11
150.934
 21
1.17133
 31
0.0
  0
LINE
  8
0
 62
     0
 10
150.934
 20
1.17133
 30
0.0
 11
151.351
 21
1.38355
 31
0.0
  0
LINE
  8
0
 62
     0
 10
151.351
 20
1.38355
 30
0.0
 11
151.684
 21
1.71566
 31
0.0
  0
LINE
  8
0
 62
     0
 10
151.684
 20
1.71566
 30
0.0
 11
151.897
 21
2.13458
 31
0.0
  0
LINE
  8
0
 62
     0
 10
151.897
 20
2.13458
 30
0.0
 11
151.971
 21
2.5976
 31
0.0
  0
LINE
  8
0
 62
     0
 10
151.971
 20
2.5976
 30
0.0
 11
151.897
 21
3.062
 31
0.0
  0
LINE
  8
0
 62
     0
 10
151.897
 20
3.062
 30
0.0
 11
151.684
 21
3.47955
 31
0.0
  0
LINE
  8
0
 62
     0
 10
151.684
 20
3.47955
 30
0.0
 11
151.351
 21
3.81166
 31
0.0
  0
LINE
  8
0
 62
     0
 10
151.351
 20
3.81166
 30
0.0
 11
150.934
 21
4.02527
 31
0.0
  0
LINE
  8
0
 62
     0
 10
150.934
 20
4.02527
 30
0.0
 11
150.471
 21
4.09829
 31
0.0
  0
LINE
  8
0
 62
     0
 10
150.471
 20
4.09829
 30
0.0
 11
150.006
 21
4.02527
 31
0.0
  0
LINE
  8
0
 62
     0
 10
2.13045
 20
4.02527
 30
0.0
 11
1.7129
 21
3.81166
 31
0.0
  0
LINE
  8
0
 62
     0
 10
1.7129
 20
3.81166
 30
0.0
 11
1.38079
 21
3.47955
 31
0.0
  0
LINE
  8
0
 62
     0
 10
1.38079
 20
3.47955
 30
0.0
 11
1.1672
 21
3.062
 31
0.0
  0
LINE
  8
0
 62
     0
 10
1.1672
 20
3.062
 30
0.0
 11
1.09416
 21
2.5976
 31
0.0
  0
LINE
  8
0
 62
     0
 10
1.09416
 20
2.5976
 30
0.0
 11
1.1672
 21
2.13458
 31
0.0
  0
LINE
  8
0
 62
     0
 10
1.1672
 20
2.13458
 30
0.0
 11
1.38079
 21
1.71566
 31
0.0
  0
LINE
  8
0
 62
     0
 10
1.38079
 20
1.71566
 30
0.0
 11
1.7129
 21
1.38355
 31
0.0
  0
LINE
  8
0
 62
     0
 10
1.7129
 20
1.38355
 30
0.0
 11
2.13045
 21
1.17133
 31
0.0
  0
LINE
  8
0
 62
     0
 10
2.13045
 20
1.17133
 30
0.0
 11
2.59485
 21
1.0983
 31
0.0
  0
LINE
  8
0
 62
     0
 10
2.59485
 20
1.0983
 30
0.0
 11
3.05787
 21
1.17133
 31
0.0
  0
LINE
  8
0
 62
     0
 10
3.05787
 20
1.17133
 30
0.0
 11
3.47541
 21
1.38355
 31
0.0
  0
LINE
  8
0
 62
     0
 10
3.47541
 20
1.38355
 30
0.0
 11
3.80753
 21
1.71566
 31
0.0
  0
LINE
  8
0
 62
     0
 10
3.80753
 20
1.71566
 30
0.0
 11
4.0211
 21
2.13458
 31
0.0
  0
LINE
  8
0
 62
     0
 10
4.0211
 20
2.13458
 30
0.0
 11
4.09416
 21
2.5976
 31
0.0
  0
LINE
  8
0
 62
     0
 10
4.09416
 20
2.5976
 30
0.0
 11
4.0211
 21
3.062
 31
0.0
  0
LINE
  8
0
 62
     0
 10
4.0211
 20
3.062
 30
0.0
 11
3.80753
 21
3.47955
 31
0.0
  0
LINE
  8
0
 62
     0
 10
3.80753
 20
3.47955
 30
0.0
 11
3.47541
 21
3.81166
 31
0.0
  0
LINE
  8
0
 62
     0
 10
3.47541
 20
3.81166
 30
0.0
 11
3.05787
 21
4.02527
 31
0.0
  0
LINE
  8
0
 62
     0
 10
3.05787
 20
4.02527
 30
0.0
 11
2.59485
 21
4.09829
 31
0.0
  0
LINE
  8
0
 62
     0
 10
2.59485
 20
4.09829
 30
0.0
 11
2.13045
 21
4.02527
 31
0.0
  0
LINE
  8
0
 62
     0
 10
5.0946
 20
86.0612
 30
0.0
 11
147.971
 21
86.0612
 31
0.0
  0
LINE
  8
0
 62
     0
 10
147.971
 20
86.0612
 30
0.0
 11
147.971
 21
5.09873
 31
0.0
  0
LINE
  8
0
 62
     0
 10
147.971
 20
5.09873
 30
0.0
 11
5.0946
 21
5.09873
 31
0.0
  0
LINE
  8
0
 62
     0
 10
5.0946
 20
5.09873
 30
0.0
 11
5.0946
 21
86.0612
 31
0.0
  0
LINE
  8
0
 62
     0
 10
150.006
 20
89.9887
 30
0.0
 11
149.589
 21
89.7749
 31
0.0
  0
LINE
  8
0
 62
     0
 10
149.589
 20
89.7749
 30
0.0
 11
149.257
 21
89.4429
 31
0.0
  0
LINE
  8
0
 62
     0
 10
149.257
 20
89.4429
 30
0.0
 11
149.043
 21
89.0252
 31
0.0
  0
LINE
  8
0
 62
     0
 10
149.043
 20
89.0252
 30
0.0
 11
148.97
 21
88.561
 31
0.0
  0
LINE
  8
0
 62
     0
 10
148.97
 20
88.561
 30
0.0
 11
149.043
 21
88.0981
 31
0.0
  0
LINE
  8
0
 62
     0
 10
149.043
 20
88.0981
 30
0.0
 11
149.257
 21
87.6804
 31
0.0
  0
LINE
  8
0
 62
     0
 10
149.257
 20
87.6804
 30
0.0
 11
149.589
 21
87.3485
 31
0.0
  0
LINE
  8
0
 62
     0
 10
149.589
 20
87.3485
 30
0.0
 11
150.006
 21
87.1347
 31
0.0
  0
LINE
  8
0
 62
     0
 10
150.006
 20
87.1347
 30
0.0
 11
150.471
 21
87.0617
 31
0.0
  0
LINE
  8
0
 62
     0
 10
150.471
 20
87.0617
 30
0.0
 11
150.934
 21
87.1347
 31
0.0
  0
LINE
  8
0
 62
     0
 10
150.934
 20
87.1347
 30
0.0
 11
151.351
 21
87.3485
 31
0.0
  0
LINE
  8
0
 62
     0
 10
151.351
 20
87.3485
 30
0.0
 11
151.684
 21
87.6804
 31
0.0
  0
LINE
  8
0
 62
     0
 10
151.684
 20
87.6804
 30
0.0
 11
151.897
 21
88.0981
 31
0.0
  0
LINE
  8
0
 62
     0
 10
151.897
 20
88.0981
 30
0.0
 11
151.971
 21
88.561
 31
0.0
  0
LINE
  8
0
 62
     0
 10
151.971
 20
88.561
 30
0.0
 11
151.897
 21
89.0252
 31
0.0
  0
LINE
  8
0
 62
     0
 10
151.897
 20
89.0252
 30
0.0
 11
151.684
 21
89.4429
 31
0.0
  0
LINE
  8
0
 62
     0
 10
151.684
 20
89.4429
 30
0.0
 11
151.351
 21
89.7749
 31
0.0
  0
LINE
  8
0
 62
     0
 10
151.351
 20
89.7749
 30
0.0
 11
150.934
 21
89.9887
 31
0.0
  0
LINE
  8
0
 62
     0
 10
150.934
 20
89.9887
 30
0.0
 11
150.471
 21
90.0617
 31
0.0
  0
LINE
  8
0
 62
     0
 10
150.471
 20
90.0617
 30
0.0
 11
150.006
 21
89.9887
 31
0.0
  0
LINE
  8
0
 62
     0
 10
2.13045
 20
89.9887
 30
0.0
 11
1.7129
 21
89.7749
 31
0.0
  0
LINE
  8
0
 62
     0
 10
1.7129
 20
89.7749
 30
0.0
 11
1.38079
 21
89.4429
 31
0.0
  0
LINE
  8
0
 62
     0
 10
1.38079
 20
89.4429
 30
0.0
 11
1.1672
 21
89.0252
 31
0.0
  0
LINE
  8
0
 62
     0
 10
1.1672
 20
89.0252
 30
0.0
 11
1.09416
 21
88.561
 31
0.0
  0
LINE
  8
0
 62
     0
 10
1.09416
 20
88.561
 30
0.0
 11
1.1672
 21
88.0981
 31
0.0
  0
LINE
  8
0
 62
     0
 10
1.1672
 20
88.0981
 30
0.0
 11
1.38079
 21
87.6804
 31
0.0
  0
LINE
  8
0
 62
     0
 10
1.38079
 20
87.6804
 30
0.0
 11
1.7129
 21
87.3485
 31
0.0
  0
LINE
  8
0
 62
     0
 10
1.7129
 20
87.3485
 30
0.0
 11
2.13045
 21
87.1347
 31
0.0
  0
LINE
  8
0
 62
     0
 10
2.13045
 20
87.1347
 30
0.0
 11
2.59485
 21
87.0617
 31
0.0
  0
LINE
  8
0
 62
     0
 10
2.59485
 20
87.0617
 30
0.0
 11
3.05787
 21
87.1347
 31
0.0
  0
LINE
  8
0
 62
     0
 10
3.05787
 20
87.1347
 30
0.0
 11
3.47541
 21
87.3485
 31
0.0
  0
LINE
  8
0
 62
     0
 10
3.47541
 20
87.3485
 30
0.0
 11
3.80753
 21
87.6804
 31
0.0
  0
LINE
  8
0
 62
     0
 10
3.80753
 20
87.6804
 30
0.0
 11
4.0211
 21
88.0981
 31
0.0
  0
LINE
  8
0
 62
     0
 10
4.0211
 20
88.0981
 30
0.0
 11
4.09416
 21
88.561
 31
0.0
  0
LINE
  8
0
 62
     0
 10
4.09416
 20
88.561
 30
0.0
 11
4.0211
 21
89.0252
 31
0.0
  0
LINE
  8
0
 62
     0
 10
4.0211
 20
89.0252
 30
0.0
 11
3.80753
 21
89.4429
 31
0.0
  0
LINE
  8
0
 62
     0
 10
3.80753
 20
89.4429
 30
0.0
 11
3.47541
 21
89.7749
 31
0.0
  0
LINE
  8
0
 62
     0
 10
3.47541
 20
89.7749
 30
0.0
 11
3.05787
 21
89.9887
 31
0.0
  0
LINE
  8
0
 62
     0
 10
3.05787
 20
89.9887
 30
0.0
 11
2.59485
 21
90.0617
 31
0.0
  0
LINE
  8
0
 62
     0
 10
2.59485
 20
90.0617
 30
0.0
 11
2.13045
 21
89.9887
 31
0.0
  0
ENDSEC
  0
EOF
