  0
SECTION
  2
HEADER
  9
$ACADVER
  1
AC1009
  9
$EXTMIN
 10
0.0
 20
0.0
 30
0.0
  9
$EXTMAX
 10
1000.0
 20
1000.0
 30
0.0
  9
$FILLMODE
 70
 0
  9
$SPLFRAME
 70
 1
  0
ENDSEC
  0
SECTION
  2
TABLES
  0
TABLE
  2
LAYER
 70
1
  0
LAYER
  2
0
 70
     0
 62
     7
  6
CONTINUOUS
  0
ENDTAB
  0
ENDSEC
  0
SECTION
  2
ENTITIES
  0
LINE
  8
0
 62
     0
 10
150.971
 20
101.061
 30
0.0
 11
151.127
 21
101.056
 31
0.0
  0
LINE
  8
0
 62
     0
 10
151.127
 20
101.056
 30
0.0
 11
151.282
 21
101.038
 31
0.0
  0
LINE
  8
0
 62
     0
 10
151.282
 20
101.038
 30
0.0
 11
151.437
 21
101.006
 31
0.0
  0
LINE
  8
0
 62
     0
 10
151.437
 20
101.006
 30
0.0
 11
151.588
 21
100.965
 31
0.0
  0
LINE
  8
0
 62
     0
 10
151.588
 20
100.965
 30
0.0
 11
151.736
 21
100.91
 31
0.0
  0
LINE
  8
0
 62
     0
 10
151.736
 20
100.91
 30
0.0
 11
151.878
 21
100.845
 31
0.0
  0
LINE
  8
0
 62
     0
 10
151.878
 20
100.845
 30
0.0
 11
152.014
 21
100.768
 31
0.0
  0
LINE
  8
0
 62
     0
 10
152.014
 20
100.768
 30
0.0
 11
152.145
 21
100.681
 31
0.0
  0
LINE
  8
0
 62
     0
 10
152.145
 20
100.681
 30
0.0
 11
152.269
 21
100.583
 31
0.0
  0
LINE
  8
0
 62
     0
 10
152.269
 20
100.583
 30
0.0
 11
152.385
 21
100.477
 31
0.0
  0
LINE
  8
0
 62
     0
 10
152.385
 20
100.477
 30
0.0
 11
152.491
 21
100.361
 31
0.0
  0
LINE
  8
0
 62
     0
 10
152.491
 20
100.361
 30
0.0
 11
152.589
 21
100.237
 31
0.0
  0
LINE
  8
0
 62
     0
 10
152.589
 20
100.237
 30
0.0
 11
152.676
 21
100.106
 31
0.0
  0
LINE
  8
0
 62
     0
 10
152.676
 20
100.106
 30
0.0
 11
152.753
 21
99.9698
 31
0.0
  0
LINE
  8
0
 62
     0
 10
152.753
 20
99.9698
 30
0.0
 11
152.818
 21
99.828
 31
0.0
  0
LINE
  8
0
 62
     0
 10
152.818
 20
99.828
 30
0.0
 11
152.873
 21
99.6805
 31
0.0
  0
LINE
  8
0
 62
     0
 10
152.873
 20
99.6805
 30
0.0
 11
152.915
 21
99.5288
 31
0.0
  0
LINE
  8
0
 62
     0
 10
152.915
 20
99.5288
 30
0.0
 11
152.946
 21
99.3743
 31
0.0
  0
LINE
  8
0
 62
     0
 10
152.946
 20
99.3743
 30
0.0
 11
152.964
 21
99.2188
 31
0.0
  0
LINE
  8
0
 62
     0
 10
152.964
 20
99.2188
 30
0.0
 11
152.97
 21
99.0618
 31
0.0
  0
LINE
  8
0
 62
     0
 10
152.97
 20
99.0618
 30
0.0
 11
152.97
 21
2.09875
 31
0.0
  0
LINE
  8
0
 62
     0
 10
152.97
 20
2.09875
 30
0.0
 11
152.964
 21
1.94166
 31
0.0
  0
LINE
  8
0
 62
     0
 10
152.964
 20
1.94166
 30
0.0
 11
152.946
 21
1.78594
 31
0.0
  0
LINE
  8
0
 62
     0
 10
152.946
 20
1.78594
 30
0.0
 11
152.915
 21
1.6316
 31
0.0
  0
LINE
  8
0
 62
     0
 10
152.915
 20
1.6316
 30
0.0
 11
152.873
 21
1.48001
 31
0.0
  0
LINE
  8
0
 62
     0
 10
152.873
 20
1.48001
 30
0.0
 11
152.818
 21
1.33394
 31
0.0
  0
LINE
  8
0
 62
     0
 10
152.818
 20
1.33394
 30
0.0
 11
152.753
 21
1.19063
 31
0.0
  0
LINE
  8
0
 62
     0
 10
152.753
 20
1.19063
 30
0.0
 11
152.676
 21
1.0542
 31
0.0
  0
LINE
  8
0
 62
     0
 10
152.676
 20
1.0542
 30
0.0
 11
152.589
 21
0.921907
 31
0.0
  0
LINE
  8
0
 62
     0
 10
152.589
 20
0.921907
 30
0.0
 11
152.491
 21
0.799264
 31
0.0
  0
LINE
  8
0
 62
     0
 10
152.491
 20
0.799264
 30
0.0
 11
152.385
 21
0.684886
 31
0.0
  0
LINE
  8
0
 62
     0
 10
152.385
 20
0.684886
 30
0.0
 11
152.269
 21
0.577398
 31
0.0
  0
LINE
  8
0
 62
     0
 10
152.269
 20
0.577398
 30
0.0
 11
152.145
 21
0.480935
 31
0.0
  0
LINE
  8
0
 62
     0
 10
152.145
 20
0.480935
 30
0.0
 11
152.014
 21
0.39412
 31
0.0
  0
LINE
  8
0
 62
     0
 10
152.014
 20
0.39412
 30
0.0
 11
151.878
 21
0.316949
 31
0.0
  0
LINE
  8
0
 62
     0
 10
151.878
 20
0.316949
 30
0.0
 11
151.736
 21
0.250803
 31
0.0
  0
LINE
  8
0
 62
     0
 10
151.736
 20
0.250803
 30
0.0
 11
151.588
 21
0.19706
 31
0.0
  0
LINE
  8
0
 62
     0
 10
151.588
 20
0.19706
 30
0.0
 11
151.437
 21
0.152962
 31
0.0
  0
LINE
  8
0
 62
     0
 10
151.437
 20
0.152962
 30
0.0
 11
151.282
 21
0.124024
 31
0.0
  0
LINE
  8
0
 62
     0
 10
151.282
 20
0.124024
 30
0.0
 11
151.127
 21
0.104731
 31
0.0
  0
LINE
  8
0
 62
     0
 10
151.127
 20
0.104731
 30
0.0
 11
150.969
 21
0.0978408
 31
0.0
  0
LINE
  8
0
 62
     0
 10
150.969
 20
0.0978408
 30
0.0
 11
2.09462
 21
0.0978408
 31
0.0
  0
LINE
  8
0
 62
     0
 10
2.09462
 20
0.0978408
 30
0.0
 11
1.93752
 21
0.104731
 31
0.0
  0
LINE
  8
0
 62
     0
 10
1.93752
 20
0.104731
 30
0.0
 11
1.7818
 21
0.124024
 31
0.0
  0
LINE
  8
0
 62
     0
 10
1.7818
 20
0.124024
 30
0.0
 11
1.62746
 21
0.152962
 31
0.0
  0
LINE
  8
0
 62
     0
 10
1.62746
 20
0.152962
 30
0.0
 11
1.47588
 21
0.19706
 31
0.0
  0
LINE
  8
0
 62
     0
 10
1.47588
 20
0.19706
 30
0.0
 11
1.32843
 21
0.250803
 31
0.0
  0
LINE
  8
0
 62
     0
 10
1.32843
 20
0.250803
 30
0.0
 11
1.18649
 21
0.316949
 31
0.0
  0
LINE
  8
0
 62
     0
 10
1.18649
 20
0.316949
 30
0.0
 11
1.05006
 21
0.39412
 31
0.0
  0
LINE
  8
0
 62
     0
 10
1.05006
 20
0.39412
 30
0.0
 11
0.919152
 21
0.480935
 31
0.0
  0
LINE
  8
0
 62
     0
 10
0.919152
 20
0.480935
 30
0.0
 11
0.795129
 21
0.577398
 31
0.0
  0
LINE
  8
0
 62
     0
 10
0.795129
 20
0.577398
 30
0.0
 11
0.679372
 21
0.684886
 31
0.0
  0
LINE
  8
0
 62
     0
 10
0.679372
 20
0.684886
 30
0.0
 11
0.573264
 21
0.799264
 31
0.0
  0
LINE
  8
0
 62
     0
 10
0.573264
 20
0.799264
 30
0.0
 11
0.475424
 21
0.921907
 31
0.0
  0
LINE
  8
0
 62
     0
 10
0.475424
 20
0.921907
 30
0.0
 11
0.388606
 21
1.0542
 31
0.0
  0
LINE
  8
0
 62
     0
 10
0.388606
 20
1.0542
 30
0.0
 11
0.311437
 21
1.19063
 31
0.0
  0
LINE
  8
0
 62
     0
 10
0.311437
 20
1.19063
 30
0.0
 11
0.246669
 21
1.33394
 31
0.0
  0
LINE
  8
0
 62
     0
 10
0.246669
 20
1.33394
 30
0.0
 11
0.191547
 21
1.48001
 31
0.0
  0
LINE
  8
0
 62
     0
 10
0.191547
 20
1.48001
 30
0.0
 11
0.150206
 21
1.6316
 31
0.0
  0
LINE
  8
0
 62
     0
 10
0.150206
 20
1.6316
 30
0.0
 11
0.118511
 21
1.78594
 31
0.0
  0
LINE
  8
0
 62
     0
 10
0.118511
 20
1.78594
 30
0.0
 11
0.100597
 21
1.94166
 31
0.0
  0
LINE
  8
0
 62
     0
 10
0.100597
 20
1.94166
 30
0.0
 11
0.0937066
 21
2.09875
 31
0.0
  0
LINE
  8
0
 62
     0
 10
0.0937066
 20
2.09875
 30
0.0
 11
0.0950846
 21
99.0618
 31
0.0
  0
LINE
  8
0
 62
     0
 10
0.0950846
 20
99.0618
 30
0.0
 11
0.100597
 21
99.2188
 31
0.0
  0
LINE
  8
0
 62
     0
 10
0.100597
 20
99.2188
 30
0.0
 11
0.118511
 21
99.3743
 31
0.0
  0
LINE
  8
0
 62
     0
 10
0.118511
 20
99.3743
 30
0.0
 11
0.150206
 21
99.5288
 31
0.0
  0
LINE
  8
0
 62
     0
 10
0.150206
 20
99.5288
 30
0.0
 11
0.191547
 21
99.6805
 31
0.0
  0
LINE
  8
0
 62
     0
 10
0.191547
 20
99.6805
 30
0.0
 11
0.246669
 21
99.828
 31
0.0
  0
LINE
  8
0
 62
     0
 10
0.246669
 20
99.828
 30
0.0
 11
0.311437
 21
99.9698
 31
0.0
  0
LINE
  8
0
 62
     0
 10
0.311437
 20
99.9698
 30
0.0
 11
0.388606
 21
100.106
 31
0.0
  0
LINE
  8
0
 62
     0
 10
0.388606
 20
100.106
 30
0.0
 11
0.475424
 21
100.237
 31
0.0
  0
LINE
  8
0
 62
     0
 10
0.475424
 20
100.237
 30
0.0
 11
0.573264
 21
100.361
 31
0.0
  0
LINE
  8
0
 62
     0
 10
0.573264
 20
100.361
 30
0.0
 11
0.679372
 21
100.477
 31
0.0
  0
LINE
  8
0
 62
     0
 10
0.679372
 20
100.477
 30
0.0
 11
0.795129
 21
100.583
 31
0.0
  0
LINE
  8
0
 62
     0
 10
0.795129
 20
100.583
 30
0.0
 11
0.919152
 21
100.681
 31
0.0
  0
LINE
  8
0
 62
     0
 10
0.919152
 20
100.681
 30
0.0
 11
1.05006
 21
100.768
 31
0.0
  0
LINE
  8
0
 62
     0
 10
1.05006
 20
100.768
 30
0.0
 11
1.18649
 21
100.845
 31
0.0
  0
LINE
  8
0
 62
     0
 10
1.18649
 20
100.845
 30
0.0
 11
1.32843
 21
100.91
 31
0.0
  0
LINE
  8
0
 62
     0
 10
1.32843
 20
100.91
 30
0.0
 11
1.47588
 21
100.965
 31
0.0
  0
LINE
  8
0
 62
     0
 10
1.47588
 20
100.965
 30
0.0
 11
1.62746
 21
101.006
 31
0.0
  0
LINE
  8
0
 62
     0
 10
1.62746
 20
101.006
 30
0.0
 11
1.7818
 21
101.038
 31
0.0
  0
LINE
  8
0
 62
     0
 10
1.7818
 20
101.038
 30
0.0
 11
1.93752
 21
101.056
 31
0.0
  0
LINE
  8
0
 62
     0
 10
1.93752
 20
101.056
 30
0.0
 11
2.09462
 21
101.063
 31
0.0
  0
LINE
  8
0
 62
     0
 10
2.09462
 20
101.063
 30
0.0
 11
150.971
 21
101.061
 31
0.0
  0
LINE
  8
0
 62
     0
 10
4.44556
 20
7.09553
 30
0.0
 11
3.85988
 21
6.79785
 31
0.0
  0
LINE
  8
0
 62
     0
 10
3.85988
 20
6.79785
 30
0.0
 11
3.39549
 21
6.33208
 31
0.0
  0
LINE
  8
0
 62
     0
 10
3.39549
 20
6.33208
 30
0.0
 11
3.09645
 21
5.74781
 31
0.0
  0
LINE
  8
0
 62
     0
 10
3.09645
 20
5.74781
 30
0.0
 11
2.9931
 21
5.09873
 31
0.0
  0
LINE
  8
0
 62
     0
 10
2.9931
 20
5.09873
 30
0.0
 11
3.09645
 21
4.44969
 31
0.0
  0
LINE
  8
0
 62
     0
 10
3.09645
 20
4.44969
 30
0.0
 11
3.39549
 21
3.86401
 31
0.0
  0
LINE
  8
0
 62
     0
 10
3.39549
 20
3.86401
 30
0.0
 11
3.85988
 21
3.39962
 31
0.0
  0
LINE
  8
0
 62
     0
 10
3.85988
 20
3.39962
 30
0.0
 11
4.44556
 21
3.10196
 31
0.0
  0
LINE
  8
0
 62
     0
 10
4.44556
 20
3.10196
 30
0.0
 11
5.0946
 21
2.99861
 31
0.0
  0
LINE
  8
0
 62
     0
 10
5.0946
 20
2.99861
 30
0.0
 11
5.74227
 21
3.10196
 31
0.0
  0
LINE
  8
0
 62
     0
 10
5.74227
 20
3.10196
 30
0.0
 11
6.32933
 21
3.39962
 31
0.0
  0
LINE
  8
0
 62
     0
 10
6.32933
 20
3.39962
 30
0.0
 11
6.79235
 21
3.86401
 31
0.0
  0
LINE
  8
0
 62
     0
 10
6.79235
 20
3.86401
 30
0.0
 11
7.0914
 21
4.44969
 31
0.0
  0
LINE
  8
0
 62
     0
 10
7.0914
 20
4.44969
 30
0.0
 11
7.19473
 21
5.09873
 31
0.0
  0
LINE
  8
0
 62
     0
 10
7.19473
 20
5.09873
 30
0.0
 11
7.0914
 21
5.74781
 31
0.0
  0
LINE
  8
0
 62
     0
 10
7.0914
 20
5.74781
 30
0.0
 11
6.79235
 21
6.33208
 31
0.0
  0
LINE
  8
0
 62
     0
 10
6.79235
 20
6.33208
 30
0.0
 11
6.32933
 21
6.79785
 31
0.0
  0
LINE
  8
0
 62
     0
 10
6.32933
 20
6.79785
 30
0.0
 11
5.74227
 21
7.09553
 31
0.0
  0
LINE
  8
0
 62
     0
 10
5.74227
 20
7.09553
 30
0.0
 11
5.0946
 21
7.19889
 31
0.0
  0
LINE
  8
0
 62
     0
 10
5.0946
 20
7.19889
 30
0.0
 11
4.44556
 21
7.09553
 31
0.0
  0
LINE
  8
0
 62
     0
 10
75.8843
 20
7.09553
 30
0.0
 11
75.2972
 21
6.79785
 31
0.0
  0
LINE
  8
0
 62
     0
 10
75.2972
 20
6.79785
 30
0.0
 11
74.8344
 21
6.33208
 31
0.0
  0
LINE
  8
0
 62
     0
 10
74.8344
 20
6.33208
 30
0.0
 11
74.5352
 21
5.74781
 31
0.0
  0
LINE
  8
0
 62
     0
 10
74.5352
 20
5.74781
 30
0.0
 11
74.4333
 21
5.09873
 31
0.0
  0
LINE
  8
0
 62
     0
 10
74.4333
 20
5.09873
 30
0.0
 11
74.5352
 21
4.44969
 31
0.0
  0
LINE
  8
0
 62
     0
 10
74.5352
 20
4.44969
 30
0.0
 11
74.8344
 21
3.86401
 31
0.0
  0
LINE
  8
0
 62
     0
 10
74.8344
 20
3.86401
 30
0.0
 11
75.2972
 21
3.39962
 31
0.0
  0
LINE
  8
0
 62
     0
 10
75.2972
 20
3.39962
 30
0.0
 11
75.8843
 21
3.10196
 31
0.0
  0
LINE
  8
0
 62
     0
 10
75.8843
 20
3.10196
 30
0.0
 11
76.532
 21
2.99861
 31
0.0
  0
LINE
  8
0
 62
     0
 10
76.532
 20
2.99861
 30
0.0
 11
77.1811
 21
3.10196
 31
0.0
  0
LINE
  8
0
 62
     0
 10
77.1811
 20
3.10196
 30
0.0
 11
77.7667
 21
3.39962
 31
0.0
  0
LINE
  8
0
 62
     0
 10
77.7667
 20
3.39962
 30
0.0
 11
78.2313
 21
3.86401
 31
0.0
  0
LINE
  8
0
 62
     0
 10
78.2313
 20
3.86401
 30
0.0
 11
78.5301
 21
4.44969
 31
0.0
  0
LINE
  8
0
 62
     0
 10
78.5301
 20
4.44969
 30
0.0
 11
78.6324
 21
5.09873
 31
0.0
  0
LINE
  8
0
 62
     0
 10
78.6324
 20
5.09873
 30
0.0
 11
78.5301
 21
5.74781
 31
0.0
  0
LINE
  8
0
 62
     0
 10
78.5301
 20
5.74781
 30
0.0
 11
78.2313
 21
6.33208
 31
0.0
  0
LINE
  8
0
 62
     0
 10
78.2313
 20
6.33208
 30
0.0
 11
77.7667
 21
6.79785
 31
0.0
  0
LINE
  8
0
 62
     0
 10
77.7667
 20
6.79785
 30
0.0
 11
77.1811
 21
7.09553
 31
0.0
  0
LINE
  8
0
 62
     0
 10
77.1811
 20
7.09553
 30
0.0
 11
76.532
 21
7.19889
 31
0.0
  0
LINE
  8
0
 62
     0
 10
76.532
 20
7.19889
 30
0.0
 11
75.8843
 21
7.09553
 31
0.0
  0
LINE
  8
0
 62
     0
 10
147.322
 20
7.09553
 30
0.0
 11
146.736
 21
6.79785
 31
0.0
  0
LINE
  8
0
 62
     0
 10
146.736
 20
6.79785
 30
0.0
 11
146.272
 21
6.33208
 31
0.0
  0
LINE
  8
0
 62
     0
 10
146.272
 20
6.33208
 30
0.0
 11
145.973
 21
5.74781
 31
0.0
  0
LINE
  8
0
 62
     0
 10
145.973
 20
5.74781
 30
0.0
 11
145.869
 21
5.09873
 31
0.0
  0
LINE
  8
0
 62
     0
 10
145.869
 20
5.09873
 30
0.0
 11
145.973
 21
4.44969
 31
0.0
  0
LINE
  8
0
 62
     0
 10
145.973
 20
4.44969
 30
0.0
 11
146.272
 21
3.86401
 31
0.0
  0
LINE
  8
0
 62
     0
 10
146.272
 20
3.86401
 30
0.0
 11
146.736
 21
3.39962
 31
0.0
  0
LINE
  8
0
 62
     0
 10
146.736
 20
3.39962
 30
0.0
 11
147.322
 21
3.10196
 31
0.0
  0
LINE
  8
0
 62
     0
 10
147.322
 20
3.10196
 30
0.0
 11
147.971
 21
2.99861
 31
0.0
  0
LINE
  8
0
 62
     0
 10
147.971
 20
2.99861
 30
0.0
 11
148.619
 21
3.10196
 31
0.0
  0
LINE
  8
0
 62
     0
 10
148.619
 20
3.10196
 30
0.0
 11
149.204
 21
3.39962
 31
0.0
  0
LINE
  8
0
 62
     0
 10
149.204
 20
3.39962
 30
0.0
 11
149.669
 21
3.86401
 31
0.0
  0
LINE
  8
0
 62
     0
 10
149.669
 20
3.86401
 30
0.0
 11
149.968
 21
4.44969
 31
0.0
  0
LINE
  8
0
 62
     0
 10
149.968
 20
4.44969
 30
0.0
 11
150.071
 21
5.09873
 31
0.0
  0
LINE
  8
0
 62
     0
 10
150.071
 20
5.09873
 30
0.0
 11
149.968
 21
5.74781
 31
0.0
  0
LINE
  8
0
 62
     0
 10
149.968
 20
5.74781
 30
0.0
 11
149.669
 21
6.33208
 31
0.0
  0
LINE
  8
0
 62
     0
 10
149.669
 20
6.33208
 30
0.0
 11
149.204
 21
6.79785
 31
0.0
  0
LINE
  8
0
 62
     0
 10
149.204
 20
6.79785
 30
0.0
 11
148.619
 21
7.09553
 31
0.0
  0
LINE
  8
0
 62
     0
 10
148.619
 20
7.09553
 30
0.0
 11
147.971
 21
7.19889
 31
0.0
  0
LINE
  8
0
 62
     0
 10
147.971
 20
7.19889
 30
0.0
 11
147.322
 21
7.09553
 31
0.0
  0
LINE
  8
0
 62
     0
 10
45.7193
 20
26.6251
 30
0.0
 11
45.7193
 21
21.9246
 31
0.0
  0
LINE
  8
0
 62
     0
 10
45.7193
 20
21.9246
 30
0.0
 11
44.1949
 21
21.9246
 31
0.0
  0
LINE
  8
0
 62
     0
 10
44.1949
 20
21.9246
 30
0.0
 11
44.1949
 21
25.1547
 31
0.0
  0
LINE
  8
0
 62
     0
 10
44.1949
 20
25.1547
 30
0.0
 11
37.4456
 21
25.1547
 31
0.0
  0
LINE
  8
0
 62
     0
 10
37.4456
 20
25.1547
 30
0.0
 11
37.4456
 21
21.9246
 31
0.0
  0
LINE
  8
0
 62
     0
 10
37.4456
 20
21.9246
 30
0.0
 11
36.6201
 21
21.9246
 31
0.0
  0
LINE
  8
0
 62
     0
 10
36.6201
 20
21.9246
 30
0.0
 11
36.6201
 21
19.1244
 31
0.0
  0
LINE
  8
0
 62
     0
 10
36.6201
 20
19.1244
 30
0.0
 11
37.4456
 21
19.1244
 31
0.0
  0
LINE
  8
0
 62
     0
 10
37.4456
 20
19.1244
 30
0.0
 11
37.4456
 21
12.8543
 31
0.0
  0
LINE
  8
0
 62
     0
 10
37.4456
 20
12.8543
 30
0.0
 11
39.1693
 21
12.8543
 31
0.0
  0
LINE
  8
0
 62
     0
 10
39.1693
 20
12.8543
 30
0.0
 11
39.1693
 21
11.6541
 31
0.0
  0
LINE
  8
0
 62
     0
 10
39.1693
 20
11.6541
 30
0.0
 11
42.4699
 21
11.6541
 31
0.0
  0
LINE
  8
0
 62
     0
 10
42.4699
 20
11.6541
 30
0.0
 11
42.4699
 21
12.8543
 31
0.0
  0
LINE
  8
0
 62
     0
 10
42.4699
 20
12.8543
 30
0.0
 11
44.1949
 21
12.8543
 31
0.0
  0
LINE
  8
0
 62
     0
 10
44.1949
 20
12.8543
 30
0.0
 11
44.1949
 21
17.3247
 31
0.0
  0
LINE
  8
0
 62
     0
 10
44.1949
 20
17.3247
 30
0.0
 11
45.7193
 21
17.3247
 31
0.0
  0
LINE
  8
0
 62
     0
 10
45.7193
 20
17.3247
 30
0.0
 11
45.7193
 21
12.6242
 31
0.0
  0
LINE
  8
0
 62
     0
 10
45.7193
 20
12.6242
 30
0.0
 11
59.72
 21
12.6242
 31
0.0
  0
LINE
  8
0
 62
     0
 10
59.72
 20
12.6242
 30
0.0
 11
59.72
 21
17.3247
 31
0.0
  0
LINE
  8
0
 62
     0
 10
59.72
 20
17.3247
 30
0.0
 11
61.244
 21
17.3247
 31
0.0
  0
LINE
  8
0
 62
     0
 10
61.244
 20
17.3247
 30
0.0
 11
61.244
 21
12.8543
 31
0.0
  0
LINE
  8
0
 62
     0
 10
61.244
 20
12.8543
 30
0.0
 11
62.9694
 21
12.8543
 31
0.0
  0
LINE
  8
0
 62
     0
 10
62.9694
 20
12.8543
 30
0.0
 11
62.9694
 21
11.6541
 31
0.0
  0
LINE
  8
0
 62
     0
 10
62.9694
 20
11.6541
 30
0.0
 11
66.27
 21
11.6541
 31
0.0
  0
LINE
  8
0
 62
     0
 10
66.27
 20
11.6541
 30
0.0
 11
66.27
 21
12.8543
 31
0.0
  0
LINE
  8
0
 62
     0
 10
66.27
 20
12.8543
 30
0.0
 11
67.9951
 21
12.8543
 31
0.0
  0
LINE
  8
0
 62
     0
 10
67.9951
 20
12.8543
 30
0.0
 11
67.9951
 21
19.1244
 31
0.0
  0
LINE
  8
0
 62
     0
 10
67.9951
 20
19.1244
 30
0.0
 11
68.8192
 21
19.1244
 31
0.0
  0
LINE
  8
0
 62
     0
 10
68.8192
 20
19.1244
 30
0.0
 11
68.8192
 21
21.9246
 31
0.0
  0
LINE
  8
0
 62
     0
 10
68.8192
 20
21.9246
 30
0.0
 11
67.9951
 21
21.9246
 31
0.0
  0
LINE
  8
0
 62
     0
 10
67.9951
 20
21.9246
 30
0.0
 11
67.9951
 21
25.1547
 31
0.0
  0
LINE
  8
0
 62
     0
 10
67.9951
 20
25.1547
 30
0.0
 11
61.244
 21
25.1547
 31
0.0
  0
LINE
  8
0
 62
     0
 10
61.244
 20
25.1547
 30
0.0
 11
61.244
 21
21.9246
 31
0.0
  0
LINE
  8
0
 62
     0
 10
61.244
 20
21.9246
 30
0.0
 11
59.72
 21
21.9246
 31
0.0
  0
LINE
  8
0
 62
     0
 10
59.72
 20
21.9246
 30
0.0
 11
59.72
 21
26.6251
 31
0.0
  0
LINE
  8
0
 62
     0
 10
59.72
 20
26.6251
 30
0.0
 11
45.7193
 21
26.6251
 31
0.0
  0
LINE
  8
0
 62
     0
 10
93.3443
 20
26.6251
 30
0.0
 11
93.3443
 21
21.9246
 31
0.0
  0
LINE
  8
0
 62
     0
 10
93.3443
 20
21.9246
 30
0.0
 11
91.8199
 21
21.9246
 31
0.0
  0
LINE
  8
0
 62
     0
 10
91.8199
 20
21.9246
 30
0.0
 11
91.8199
 21
25.1547
 31
0.0
  0
LINE
  8
0
 62
     0
 10
91.8199
 20
25.1547
 30
0.0
 11
85.0706
 21
25.1547
 31
0.0
  0
LINE
  8
0
 62
     0
 10
85.0706
 20
25.1547
 30
0.0
 11
85.0706
 21
21.9246
 31
0.0
  0
LINE
  8
0
 62
     0
 10
85.0706
 20
21.9246
 30
0.0
 11
84.2451
 21
21.9246
 31
0.0
  0
LINE
  8
0
 62
     0
 10
84.2451
 20
21.9246
 30
0.0
 11
84.2451
 21
19.1244
 31
0.0
  0
LINE
  8
0
 62
     0
 10
84.2451
 20
19.1244
 30
0.0
 11
85.0706
 21
19.1244
 31
0.0
  0
LINE
  8
0
 62
     0
 10
85.0706
 20
19.1244
 30
0.0
 11
85.0706
 21
12.8543
 31
0.0
  0
LINE
  8
0
 62
     0
 10
85.0706
 20
12.8543
 30
0.0
 11
86.7943
 21
12.8543
 31
0.0
  0
LINE
  8
0
 62
     0
 10
86.7943
 20
12.8543
 30
0.0
 11
86.7943
 21
11.6541
 31
0.0
  0
LINE
  8
0
 62
     0
 10
86.7943
 20
11.6541
 30
0.0
 11
90.0949
 21
11.6541
 31
0.0
  0
LINE
  8
0
 62
     0
 10
90.0949
 20
11.6541
 30
0.0
 11
90.0949
 21
12.8543
 31
0.0
  0
LINE
  8
0
 62
     0
 10
90.0949
 20
12.8543
 30
0.0
 11
91.8199
 21
12.8543
 31
0.0
  0
LINE
  8
0
 62
     0
 10
91.8199
 20
12.8543
 30
0.0
 11
91.8199
 21
17.3247
 31
0.0
  0
LINE
  8
0
 62
     0
 10
91.8199
 20
17.3247
 30
0.0
 11
93.3443
 21
17.3247
 31
0.0
  0
LINE
  8
0
 62
     0
 10
93.3443
 20
17.3247
 30
0.0
 11
93.3443
 21
12.6242
 31
0.0
  0
LINE
  8
0
 62
     0
 10
93.3443
 20
12.6242
 30
0.0
 11
107.345
 21
12.6242
 31
0.0
  0
LINE
  8
0
 62
     0
 10
107.345
 20
12.6242
 30
0.0
 11
107.345
 21
17.3247
 31
0.0
  0
LINE
  8
0
 62
     0
 10
107.345
 20
17.3247
 30
0.0
 11
108.869
 21
17.3247
 31
0.0
  0
LINE
  8
0
 62
     0
 10
108.869
 20
17.3247
 30
0.0
 11
108.869
 21
12.8543
 31
0.0
  0
LINE
  8
0
 62
     0
 10
108.869
 20
12.8543
 30
0.0
 11
110.594
 21
12.8543
 31
0.0
  0
LINE
  8
0
 62
     0
 10
110.594
 20
12.8543
 30
0.0
 11
110.594
 21
11.6541
 31
0.0
  0
LINE
  8
0
 62
     0
 10
110.594
 20
11.6541
 30
0.0
 11
113.895
 21
11.6541
 31
0.0
  0
LINE
  8
0
 62
     0
 10
113.895
 20
11.6541
 30
0.0
 11
113.895
 21
12.8543
 31
0.0
  0
LINE
  8
0
 62
     0
 10
113.895
 20
12.8543
 30
0.0
 11
115.62
 21
12.8543
 31
0.0
  0
LINE
  8
0
 62
     0
 10
115.62
 20
12.8543
 30
0.0
 11
115.62
 21
19.1244
 31
0.0
  0
LINE
  8
0
 62
     0
 10
115.62
 20
19.1244
 30
0.0
 11
116.444
 21
19.1244
 31
0.0
  0
LINE
  8
0
 62
     0
 10
116.444
 20
19.1244
 30
0.0
 11
116.444
 21
21.9246
 31
0.0
  0
LINE
  8
0
 62
     0
 10
116.444
 20
21.9246
 30
0.0
 11
115.62
 21
21.9246
 31
0.0
  0
LINE
  8
0
 62
     0
 10
115.62
 20
21.9246
 30
0.0
 11
115.62
 21
25.1547
 31
0.0
  0
LINE
  8
0
 62
     0
 10
115.62
 20
25.1547
 30
0.0
 11
108.869
 21
25.1547
 31
0.0
  0
LINE
  8
0
 62
     0
 10
108.869
 20
25.1547
 30
0.0
 11
108.869
 21
21.9246
 31
0.0
  0
LINE
  8
0
 62
     0
 10
108.869
 20
21.9246
 30
0.0
 11
107.345
 21
21.9246
 31
0.0
  0
LINE
  8
0
 62
     0
 10
107.345
 20
21.9246
 30
0.0
 11
107.345
 21
26.6251
 31
0.0
  0
LINE
  8
0
 62
     0
 10
107.345
 20
26.6251
 30
0.0
 11
93.3443
 21
26.6251
 31
0.0
  0
LINE
  8
0
 62
     0
 10
10.0004
 20
55.2002
 30
0.0
 11
24.0013
 21
55.2002
 31
0.0
  0
LINE
  8
0
 62
     0
 10
24.0013
 20
55.2002
 30
0.0
 11
24.0013
 21
41.2006
 31
0.0
  0
LINE
  8
0
 62
     0
 10
24.0013
 20
41.2006
 30
0.0
 11
10.0004
 21
41.2006
 31
0.0
  0
LINE
  8
0
 62
     0
 10
10.0004
 20
41.2006
 30
0.0
 11
10.0004
 21
55.2002
 31
0.0
  0
LINE
  8
0
 62
     0
 10
33.8129
 20
55.2002
 30
0.0
 11
47.8123
 21
55.2002
 31
0.0
  0
LINE
  8
0
 62
     0
 10
47.8123
 20
55.2002
 30
0.0
 11
47.8123
 21
41.2006
 31
0.0
  0
LINE
  8
0
 62
     0
 10
47.8123
 20
41.2006
 30
0.0
 11
33.8129
 21
41.2006
 31
0.0
  0
LINE
  8
0
 62
     0
 10
33.8129
 20
41.2006
 30
0.0
 11
33.8129
 21
55.2002
 31
0.0
  0
LINE
  8
0
 62
     0
 10
57.6255
 20
55.2002
 30
0.0
 11
71.6262
 21
55.2002
 31
0.0
  0
LINE
  8
0
 62
     0
 10
71.6262
 20
55.2002
 30
0.0
 11
71.6262
 21
41.2006
 31
0.0
  0
LINE
  8
0
 62
     0
 10
71.6262
 20
41.2006
 30
0.0
 11
57.6255
 21
41.2006
 31
0.0
  0
LINE
  8
0
 62
     0
 10
57.6255
 20
41.2006
 30
0.0
 11
57.6255
 21
55.2002
 31
0.0
  0
LINE
  8
0
 62
     0
 10
81.438
 20
55.2002
 30
0.0
 11
95.4373
 21
55.2002
 31
0.0
  0
LINE
  8
0
 62
     0
 10
95.4373
 20
55.2002
 30
0.0
 11
95.4373
 21
41.2006
 31
0.0
  0
LINE
  8
0
 62
     0
 10
95.4373
 20
41.2006
 30
0.0
 11
81.438
 21
41.2006
 31
0.0
  0
LINE
  8
0
 62
     0
 10
81.438
 20
41.2006
 30
0.0
 11
81.438
 21
55.2002
 31
0.0
  0
LINE
  8
0
 62
     0
 10
105.251
 20
55.2002
 30
0.0
 11
119.251
 21
55.2002
 31
0.0
  0
LINE
  8
0
 62
     0
 10
119.251
 20
55.2002
 30
0.0
 11
119.251
 21
41.2006
 31
0.0
  0
LINE
  8
0
 62
     0
 10
119.251
 20
41.2006
 30
0.0
 11
105.251
 21
41.2006
 31
0.0
  0
LINE
  8
0
 62
     0
 10
105.251
 20
41.2006
 30
0.0
 11
105.251
 21
55.2002
 31
0.0
  0
LINE
  8
0
 62
     0
 10
129.063
 20
55.2002
 30
0.0
 11
143.062
 21
55.2002
 31
0.0
  0
LINE
  8
0
 62
     0
 10
143.062
 20
55.2002
 30
0.0
 11
143.062
 21
41.2006
 31
0.0
  0
LINE
  8
0
 62
     0
 10
143.062
 20
41.2006
 30
0.0
 11
129.063
 21
41.2006
 31
0.0
  0
LINE
  8
0
 62
     0
 10
129.063
 20
41.2006
 30
0.0
 11
129.063
 21
55.2002
 31
0.0
  0
LINE
  8
0
 62
     0
 10
69.5318
 20
88.5363
 30
0.0
 11
83.5311
 21
88.5363
 31
0.0
  0
LINE
  8
0
 62
     0
 10
83.5311
 20
88.5363
 30
0.0
 11
83.5311
 21
74.5367
 31
0.0
  0
LINE
  8
0
 62
     0
 10
83.5311
 20
74.5367
 30
0.0
 11
69.5318
 21
74.5367
 31
0.0
  0
LINE
  8
0
 62
     0
 10
69.5318
 20
74.5367
 30
0.0
 11
69.5318
 21
88.5363
 31
0.0
  0
LINE
  8
0
 62
     0
 10
26.2185
 20
85.0498
 30
0.0
 11
25.9071
 21
85.0124
 31
0.0
  0
LINE
  8
0
 62
     0
 10
25.9071
 20
85.0124
 30
0.0
 11
25.5984
 21
84.9521
 31
0.0
  0
LINE
  8
0
 62
     0
 10
25.5984
 20
84.9521
 30
0.0
 11
25.2953
 21
84.8663
 31
0.0
  0
LINE
  8
0
 62
     0
 10
25.2953
 20
84.8663
 30
0.0
 11
25.0017
 21
84.7577
 31
0.0
  0
LINE
  8
0
 62
     0
 10
25.0017
 20
84.7577
 30
0.0
 11
24.7165
 21
84.6268
 31
0.0
  0
LINE
  8
0
 62
     0
 10
24.7165
 20
84.6268
 30
0.0
 11
24.4423
 21
84.4723
 31
0.0
  0
LINE
  8
0
 62
     0
 10
24.4423
 20
84.4723
 30
0.0
 11
24.1804
 21
84.2987
 31
0.0
  0
LINE
  8
0
 62
     0
 10
24.1804
 20
84.2987
 30
0.0
 11
23.9352
 21
84.1029
 31
0.0
  0
LINE
  8
0
 62
     0
 10
23.9352
 20
84.1029
 30
0.0
 11
23.7036
 21
83.8909
 31
0.0
  0
LINE
  8
0
 62
     0
 10
23.7036
 20
83.8909
 30
0.0
 11
23.4914
 21
83.6595
 31
0.0
  0
LINE
  8
0
 62
     0
 10
23.4914
 20
83.6595
 30
0.0
 11
23.2958
 21
83.414
 31
0.0
  0
LINE
  8
0
 62
     0
 10
23.2958
 20
83.414
 30
0.0
 11
23.1221
 21
83.1522
 31
0.0
  0
LINE
  8
0
 62
     0
 10
23.1221
 20
83.1522
 30
0.0
 11
22.9678
 21
82.8781
 31
0.0
  0
LINE
  8
0
 62
     0
 10
22.9678
 20
82.8781
 30
0.0
 11
22.8369
 21
82.5927
 31
0.0
  0
LINE
  8
0
 62
     0
 10
22.8369
 20
82.5927
 30
0.0
 11
22.728
 21
82.2992
 31
0.0
  0
LINE
  8
0
 62
     0
 10
22.728
 20
82.2992
 30
0.0
 11
22.6425
 21
81.9961
 31
0.0
  0
LINE
  8
0
 62
     0
 10
22.6425
 20
81.9961
 30
0.0
 11
22.5819
 21
81.6875
 31
0.0
  0
LINE
  8
0
 62
     0
 10
22.5819
 20
81.6875
 30
0.0
 11
22.5447
 21
81.376
 31
0.0
  0
LINE
  8
0
 62
     0
 10
22.5447
 20
81.376
 30
0.0
 11
22.5323
 21
81.0616
 31
0.0
  0
LINE
  8
0
 62
     0
 10
22.5323
 20
81.0616
 30
0.0
 11
22.5447
 21
80.7491
 31
0.0
  0
LINE
  8
0
 62
     0
 10
22.5447
 20
80.7491
 30
0.0
 11
22.5819
 21
80.4362
 31
0.0
  0
LINE
  8
0
 62
     0
 10
22.5819
 20
80.4362
 30
0.0
 11
22.6425
 21
80.1289
 31
0.0
  0
LINE
  8
0
 62
     0
 10
22.6425
 20
80.1289
 30
0.0
 11
22.728
 21
79.8255
 31
0.0
  0
LINE
  8
0
 62
     0
 10
22.728
 20
79.8255
 30
0.0
 11
22.8369
 21
79.532
 31
0.0
  0
LINE
  8
0
 62
     0
 10
22.8369
 20
79.532
 30
0.0
 11
22.9678
 21
79.2469
 31
0.0
  0
LINE
  8
0
 62
     0
 10
22.9678
 20
79.2469
 30
0.0
 11
23.1221
 21
78.9725
 31
0.0
  0
LINE
  8
0
 62
     0
 10
23.1221
 20
78.9725
 30
0.0
 11
23.2958
 21
78.7107
 31
0.0
  0
LINE
  8
0
 62
     0
 10
23.2958
 20
78.7107
 30
0.0
 11
23.4914
 21
78.4641
 31
0.0
  0
LINE
  8
0
 62
     0
 10
23.4914
 20
78.4641
 30
0.0
 11
23.7036
 21
78.2341
 31
0.0
  0
LINE
  8
0
 62
     0
 10
23.7036
 20
78.2341
 30
0.0
 11
23.9352
 21
78.0203
 31
0.0
  0
LINE
  8
0
 62
     0
 10
23.9352
 20
78.0203
 30
0.0
 11
24.1804
 21
77.826
 31
0.0
  0
LINE
  8
0
 62
     0
 10
24.1804
 20
77.826
 30
0.0
 11
24.4423
 21
77.651
 31
0.0
  0
LINE
  8
0
 62
     0
 10
24.4423
 20
77.651
 30
0.0
 11
24.7165
 21
77.4982
 31
0.0
  0
LINE
  8
0
 62
     0
 10
24.7165
 20
77.4982
 30
0.0
 11
25.0017
 21
77.3673
 31
0.0
  0
LINE
  8
0
 62
     0
 10
25.0017
 20
77.3673
 30
0.0
 11
25.2953
 21
77.2569
 31
0.0
  0
LINE
  8
0
 62
     0
 10
25.2953
 20
77.2569
 30
0.0
 11
25.5984
 21
77.173
 31
0.0
  0
LINE
  8
0
 62
     0
 10
25.5984
 20
77.173
 30
0.0
 11
25.9071
 21
77.1109
 31
0.0
  0
LINE
  8
0
 62
     0
 10
25.9071
 20
77.1109
 30
0.0
 11
26.2185
 21
77.0749
 31
0.0
  0
LINE
  8
0
 62
     0
 10
26.2185
 20
77.0749
 30
0.0
 11
26.5327
 21
77.0611
 31
0.0
  0
LINE
  8
0
 62
     0
 10
26.5327
 20
77.0611
 30
0.0
 11
26.8456
 21
77.0749
 31
0.0
  0
LINE
  8
0
 62
     0
 10
26.8456
 20
77.0749
 30
0.0
 11
27.1584
 21
77.1109
 31
0.0
  0
LINE
  8
0
 62
     0
 10
27.1584
 20
77.1109
 30
0.0
 11
27.4657
 21
77.173
 31
0.0
  0
LINE
  8
0
 62
     0
 10
27.4657
 20
77.173
 30
0.0
 11
27.7688
 21
77.2569
 31
0.0
  0
LINE
  8
0
 62
     0
 10
27.7688
 20
77.2569
 30
0.0
 11
28.0624
 21
77.3673
 31
0.0
  0
LINE
  8
0
 62
     0
 10
28.0624
 20
77.3673
 30
0.0
 11
28.3476
 21
77.4982
 31
0.0
  0
LINE
  8
0
 62
     0
 10
28.3476
 20
77.4982
 30
0.0
 11
28.6218
 21
77.651
 31
0.0
  0
LINE
  8
0
 62
     0
 10
28.6218
 20
77.651
 30
0.0
 11
28.8837
 21
77.826
 31
0.0
  0
LINE
  8
0
 62
     0
 10
28.8837
 20
77.826
 30
0.0
 11
29.1303
 21
78.0203
 31
0.0
  0
LINE
  8
0
 62
     0
 10
29.1303
 20
78.0203
 30
0.0
 11
29.3605
 21
78.2341
 31
0.0
  0
LINE
  8
0
 62
     0
 10
29.3605
 20
78.2341
 30
0.0
 11
29.5741
 21
78.4641
 31
0.0
  0
LINE
  8
0
 62
     0
 10
29.5741
 20
78.4641
 30
0.0
 11
29.7684
 21
78.7107
 31
0.0
  0
LINE
  8
0
 62
     0
 10
29.7684
 20
78.7107
 30
0.0
 11
29.9434
 21
78.9725
 31
0.0
  0
LINE
  8
0
 62
     0
 10
29.9434
 20
78.9725
 30
0.0
 11
30.0964
 21
79.2469
 31
0.0
  0
LINE
  8
0
 62
     0
 10
30.0964
 20
79.2469
 30
0.0
 11
30.2273
 21
79.532
 31
0.0
  0
LINE
  8
0
 62
     0
 10
30.2273
 20
79.532
 30
0.0
 11
30.3361
 21
79.8255
 31
0.0
  0
LINE
  8
0
 62
     0
 10
30.3361
 20
79.8255
 30
0.0
 11
30.4216
 21
80.1289
 31
0.0
  0
LINE
  8
0
 62
     0
 10
30.4216
 20
80.1289
 30
0.0
 11
30.4822
 21
80.4362
 31
0.0
  0
LINE
  8
0
 62
     0
 10
30.4822
 20
80.4362
 30
0.0
 11
30.5194
 21
80.7491
 31
0.0
  0
LINE
  8
0
 62
     0
 10
30.5194
 20
80.7491
 30
0.0
 11
30.5332
 21
81.0616
 31
0.0
  0
LINE
  8
0
 62
     0
 10
30.5332
 20
81.0616
 30
0.0
 11
30.5194
 21
81.376
 31
0.0
  0
LINE
  8
0
 62
     0
 10
30.5194
 20
81.376
 30
0.0
 11
30.4822
 21
81.6875
 31
0.0
  0
LINE
  8
0
 62
     0
 10
30.4822
 20
81.6875
 30
0.0
 11
30.4216
 21
81.9961
 31
0.0
  0
LINE
  8
0
 62
     0
 10
30.4216
 20
81.9961
 30
0.0
 11
30.3361
 21
82.2992
 31
0.0
  0
LINE
  8
0
 62
     0
 10
30.3361
 20
82.2992
 30
0.0
 11
30.2273
 21
82.5927
 31
0.0
  0
LINE
  8
0
 62
     0
 10
30.2273
 20
82.5927
 30
0.0
 11
30.0964
 21
82.8781
 31
0.0
  0
LINE
  8
0
 62
     0
 10
30.0964
 20
82.8781
 30
0.0
 11
29.9434
 21
83.1522
 31
0.0
  0
LINE
  8
0
 62
     0
 10
29.9434
 20
83.1522
 30
0.0
 11
29.7684
 21
83.414
 31
0.0
  0
LINE
  8
0
 62
     0
 10
29.7684
 20
83.414
 30
0.0
 11
29.5741
 21
83.6595
 31
0.0
  0
LINE
  8
0
 62
     0
 10
29.5741
 20
83.6595
 30
0.0
 11
29.3605
 21
83.8909
 31
0.0
  0
LINE
  8
0
 62
     0
 10
29.3605
 20
83.8909
 30
0.0
 11
29.1303
 21
84.1029
 31
0.0
  0
LINE
  8
0
 62
     0
 10
29.1303
 20
84.1029
 30
0.0
 11
28.8837
 21
84.2987
 31
0.0
  0
LINE
  8
0
 62
     0
 10
28.8837
 20
84.2987
 30
0.0
 11
28.6218
 21
84.4723
 31
0.0
  0
LINE
  8
0
 62
     0
 10
28.6218
 20
84.4723
 30
0.0
 11
28.3476
 21
84.6268
 31
0.0
  0
LINE
  8
0
 62
     0
 10
28.3476
 20
84.6268
 30
0.0
 11
28.0624
 21
84.7577
 31
0.0
  0
LINE
  8
0
 62
     0
 10
28.0624
 20
84.7577
 30
0.0
 11
27.7688
 21
84.8663
 31
0.0
  0
LINE
  8
0
 62
     0
 10
27.7688
 20
84.8663
 30
0.0
 11
27.4657
 21
84.9521
 31
0.0
  0
LINE
  8
0
 62
     0
 10
27.4657
 20
84.9521
 30
0.0
 11
27.1584
 21
85.0124
 31
0.0
  0
LINE
  8
0
 62
     0
 10
27.1584
 20
85.0124
 30
0.0
 11
26.8456
 21
85.0498
 31
0.0
  0
LINE
  8
0
 62
     0
 10
26.8456
 20
85.0498
 30
0.0
 11
26.5327
 21
85.0621
 31
0.0
  0
LINE
  8
0
 62
     0
 10
26.5327
 20
85.0621
 30
0.0
 11
26.2185
 21
85.0498
 31
0.0
  0
LINE
  8
0
 62
     0
 10
126.219
 20
85.0498
 30
0.0
 11
125.907
 21
85.0124
 31
0.0
  0
LINE
  8
0
 62
     0
 10
125.907
 20
85.0124
 30
0.0
 11
125.597
 21
84.9521
 31
0.0
  0
LINE
  8
0
 62
     0
 10
125.597
 20
84.9521
 30
0.0
 11
125.295
 21
84.8663
 31
0.0
  0
LINE
  8
0
 62
     0
 10
125.295
 20
84.8663
 30
0.0
 11
125.002
 21
84.7577
 31
0.0
  0
LINE
  8
0
 62
     0
 10
125.002
 20
84.7577
 30
0.0
 11
124.716
 21
84.6268
 31
0.0
  0
LINE
  8
0
 62
     0
 10
124.716
 20
84.6268
 30
0.0
 11
124.442
 21
84.4723
 31
0.0
  0
LINE
  8
0
 62
     0
 10
124.442
 20
84.4723
 30
0.0
 11
124.181
 21
84.2987
 31
0.0
  0
LINE
  8
0
 62
     0
 10
124.181
 20
84.2987
 30
0.0
 11
123.935
 21
84.1029
 31
0.0
  0
LINE
  8
0
 62
     0
 10
123.935
 20
84.1029
 30
0.0
 11
123.704
 21
83.8909
 31
0.0
  0
LINE
  8
0
 62
     0
 10
123.704
 20
83.8909
 30
0.0
 11
123.49
 21
83.6595
 31
0.0
  0
LINE
  8
0
 62
     0
 10
123.49
 20
83.6595
 30
0.0
 11
123.296
 21
83.414
 31
0.0
  0
LINE
  8
0
 62
     0
 10
123.296
 20
83.414
 30
0.0
 11
123.121
 21
83.1522
 31
0.0
  0
LINE
  8
0
 62
     0
 10
123.121
 20
83.1522
 30
0.0
 11
122.968
 21
82.8781
 31
0.0
  0
LINE
  8
0
 62
     0
 10
122.968
 20
82.8781
 30
0.0
 11
122.837
 21
82.5927
 31
0.0
  0
LINE
  8
0
 62
     0
 10
122.837
 20
82.5927
 30
0.0
 11
122.728
 21
82.2992
 31
0.0
  0
LINE
  8
0
 62
     0
 10
122.728
 20
82.2992
 30
0.0
 11
122.642
 21
81.9961
 31
0.0
  0
LINE
  8
0
 62
     0
 10
122.642
 20
81.9961
 30
0.0
 11
122.582
 21
81.6875
 31
0.0
  0
LINE
  8
0
 62
     0
 10
122.582
 20
81.6875
 30
0.0
 11
122.545
 21
81.376
 31
0.0
  0
LINE
  8
0
 62
     0
 10
122.545
 20
81.376
 30
0.0
 11
122.532
 21
81.0616
 31
0.0
  0
LINE
  8
0
 62
     0
 10
122.532
 20
81.0616
 30
0.0
 11
122.545
 21
80.7491
 31
0.0
  0
LINE
  8
0
 62
     0
 10
122.545
 20
80.7491
 30
0.0
 11
122.582
 21
80.4362
 31
0.0
  0
LINE
  8
0
 62
     0
 10
122.582
 20
80.4362
 30
0.0
 11
122.642
 21
80.1289
 31
0.0
  0
LINE
  8
0
 62
     0
 10
122.642
 20
80.1289
 30
0.0
 11
122.728
 21
79.8255
 31
0.0
  0
LINE
  8
0
 62
     0
 10
122.728
 20
79.8255
 30
0.0
 11
122.837
 21
79.532
 31
0.0
  0
LINE
  8
0
 62
     0
 10
122.837
 20
79.532
 30
0.0
 11
122.968
 21
79.2469
 31
0.0
  0
LINE
  8
0
 62
     0
 10
122.968
 20
79.2469
 30
0.0
 11
123.121
 21
78.9725
 31
0.0
  0
LINE
  8
0
 62
     0
 10
123.121
 20
78.9725
 30
0.0
 11
123.296
 21
78.7107
 31
0.0
  0
LINE
  8
0
 62
     0
 10
123.296
 20
78.7107
 30
0.0
 11
123.49
 21
78.4641
 31
0.0
  0
LINE
  8
0
 62
     0
 10
123.49
 20
78.4641
 30
0.0
 11
123.704
 21
78.2341
 31
0.0
  0
LINE
  8
0
 62
     0
 10
123.704
 20
78.2341
 30
0.0
 11
123.935
 21
78.0203
 31
0.0
  0
LINE
  8
0
 62
     0
 10
123.935
 20
78.0203
 30
0.0
 11
124.181
 21
77.826
 31
0.0
  0
LINE
  8
0
 62
     0
 10
124.181
 20
77.826
 30
0.0
 11
124.442
 21
77.651
 31
0.0
  0
LINE
  8
0
 62
     0
 10
124.442
 20
77.651
 30
0.0
 11
124.716
 21
77.4982
 31
0.0
  0
LINE
  8
0
 62
     0
 10
124.716
 20
77.4982
 30
0.0
 11
125.002
 21
77.3673
 31
0.0
  0
LINE
  8
0
 62
     0
 10
125.002
 20
77.3673
 30
0.0
 11
125.295
 21
77.2569
 31
0.0
  0
LINE
  8
0
 62
     0
 10
125.295
 20
77.2569
 30
0.0
 11
125.597
 21
77.173
 31
0.0
  0
LINE
  8
0
 62
     0
 10
125.597
 20
77.173
 30
0.0
 11
125.907
 21
77.1109
 31
0.0
  0
LINE
  8
0
 62
     0
 10
125.907
 20
77.1109
 30
0.0
 11
126.219
 21
77.0749
 31
0.0
  0
LINE
  8
0
 62
     0
 10
126.219
 20
77.0749
 30
0.0
 11
126.533
 21
77.0611
 31
0.0
  0
LINE
  8
0
 62
     0
 10
126.533
 20
77.0611
 30
0.0
 11
126.846
 21
77.0749
 31
0.0
  0
LINE
  8
0
 62
     0
 10
126.846
 20
77.0749
 30
0.0
 11
127.157
 21
77.1109
 31
0.0
  0
LINE
  8
0
 62
     0
 10
127.157
 20
77.1109
 30
0.0
 11
127.466
 21
77.173
 31
0.0
  0
LINE
  8
0
 62
     0
 10
127.466
 20
77.173
 30
0.0
 11
127.769
 21
77.2569
 31
0.0
  0
LINE
  8
0
 62
     0
 10
127.769
 20
77.2569
 30
0.0
 11
128.063
 21
77.3673
 31
0.0
  0
LINE
  8
0
 62
     0
 10
128.063
 20
77.3673
 30
0.0
 11
128.348
 21
77.4982
 31
0.0
  0
LINE
  8
0
 62
     0
 10
128.348
 20
77.4982
 30
0.0
 11
128.622
 21
77.651
 31
0.0
  0
LINE
  8
0
 62
     0
 10
128.622
 20
77.651
 30
0.0
 11
128.884
 21
77.826
 31
0.0
  0
LINE
  8
0
 62
     0
 10
128.884
 20
77.826
 30
0.0
 11
129.129
 21
78.0203
 31
0.0
  0
LINE
  8
0
 62
     0
 10
129.129
 20
78.0203
 30
0.0
 11
129.36
 21
78.2341
 31
0.0
  0
LINE
  8
0
 62
     0
 10
129.36
 20
78.2341
 30
0.0
 11
129.574
 21
78.4641
 31
0.0
  0
LINE
  8
0
 62
     0
 10
129.574
 20
78.4641
 30
0.0
 11
129.769
 21
78.7107
 31
0.0
  0
LINE
  8
0
 62
     0
 10
129.769
 20
78.7107
 30
0.0
 11
129.942
 21
78.9725
 31
0.0
  0
LINE
  8
0
 62
     0
 10
129.942
 20
78.9725
 30
0.0
 11
130.096
 21
79.2469
 31
0.0
  0
LINE
  8
0
 62
     0
 10
130.096
 20
79.2469
 30
0.0
 11
130.227
 21
79.532
 31
0.0
  0
LINE
  8
0
 62
     0
 10
130.227
 20
79.532
 30
0.0
 11
130.336
 21
79.8255
 31
0.0
  0
LINE
  8
0
 62
     0
 10
130.336
 20
79.8255
 30
0.0
 11
130.422
 21
80.1289
 31
0.0
  0
LINE
  8
0
 62
     0
 10
130.422
 20
80.1289
 30
0.0
 11
130.482
 21
80.4362
 31
0.0
  0
LINE
  8
0
 62
     0
 10
130.482
 20
80.4362
 30
0.0
 11
130.52
 21
80.7491
 31
0.0
  0
LINE
  8
0
 62
     0
 10
130.52
 20
80.7491
 30
0.0
 11
130.532
 21
81.0616
 31
0.0
  0
LINE
  8
0
 62
     0
 10
130.532
 20
81.0616
 30
0.0
 11
130.52
 21
81.376
 31
0.0
  0
LINE
  8
0
 62
     0
 10
130.52
 20
81.376
 30
0.0
 11
130.482
 21
81.6875
 31
0.0
  0
LINE
  8
0
 62
     0
 10
130.482
 20
81.6875
 30
0.0
 11
130.422
 21
81.9961
 31
0.0
  0
LINE
  8
0
 62
     0
 10
130.422
 20
81.9961
 30
0.0
 11
130.336
 21
82.2992
 31
0.0
  0
LINE
  8
0
 62
     0
 10
130.336
 20
82.2992
 30
0.0
 11
130.227
 21
82.5927
 31
0.0
  0
LINE
  8
0
 62
     0
 10
130.227
 20
82.5927
 30
0.0
 11
130.096
 21
82.8781
 31
0.0
  0
LINE
  8
0
 62
     0
 10
130.096
 20
82.8781
 30
0.0
 11
129.942
 21
83.1522
 31
0.0
  0
LINE
  8
0
 62
     0
 10
129.942
 20
83.1522
 30
0.0
 11
129.769
 21
83.414
 31
0.0
  0
LINE
  8
0
 62
     0
 10
129.769
 20
83.414
 30
0.0
 11
129.574
 21
83.6595
 31
0.0
  0
LINE
  8
0
 62
     0
 10
129.574
 20
83.6595
 30
0.0
 11
129.36
 21
83.8909
 31
0.0
  0
LINE
  8
0
 62
     0
 10
129.36
 20
83.8909
 30
0.0
 11
129.129
 21
84.1029
 31
0.0
  0
LINE
  8
0
 62
     0
 10
129.129
 20
84.1029
 30
0.0
 11
128.884
 21
84.2987
 31
0.0
  0
LINE
  8
0
 62
     0
 10
128.884
 20
84.2987
 30
0.0
 11
128.622
 21
84.4723
 31
0.0
  0
LINE
  8
0
 62
     0
 10
128.622
 20
84.4723
 30
0.0
 11
128.348
 21
84.6268
 31
0.0
  0
LINE
  8
0
 62
     0
 10
128.348
 20
84.6268
 30
0.0
 11
128.063
 21
84.7577
 31
0.0
  0
LINE
  8
0
 62
     0
 10
128.063
 20
84.7577
 30
0.0
 11
127.769
 21
84.8663
 31
0.0
  0
LINE
  8
0
 62
     0
 10
127.769
 20
84.8663
 30
0.0
 11
127.466
 21
84.9521
 31
0.0
  0
LINE
  8
0
 62
     0
 10
127.466
 20
84.9521
 30
0.0
 11
127.157
 21
85.0124
 31
0.0
  0
LINE
  8
0
 62
     0
 10
127.157
 20
85.0124
 30
0.0
 11
126.846
 21
85.0498
 31
0.0
  0
LINE
  8
0
 62
     0
 10
126.846
 20
85.0498
 30
0.0
 11
126.533
 21
85.0621
 31
0.0
  0
LINE
  8
0
 62
     0
 10
126.533
 20
85.0621
 30
0.0
 11
126.219
 21
85.0498
 31
0.0
  0
LINE
  8
0
 62
     0
 10
4.44556
 20
98.0599
 30
0.0
 11
3.85988
 21
97.7607
 31
0.0
  0
LINE
  8
0
 62
     0
 10
3.85988
 20
97.7607
 30
0.0
 11
3.39549
 21
97.2965
 31
0.0
  0
LINE
  8
0
 62
     0
 10
3.39549
 20
97.2965
 30
0.0
 11
3.09645
 21
96.7109
 31
0.0
  0
LINE
  8
0
 62
     0
 10
3.09645
 20
96.7109
 30
0.0
 11
2.9931
 21
96.0617
 31
0.0
  0
LINE
  8
0
 62
     0
 10
2.9931
 20
96.0617
 30
0.0
 11
3.09645
 21
95.414
 31
0.0
  0
LINE
  8
0
 62
     0
 10
3.09645
 20
95.414
 30
0.0
 11
3.39549
 21
94.827
 31
0.0
  0
LINE
  8
0
 62
     0
 10
3.39549
 20
94.827
 30
0.0
 11
3.85988
 21
94.3638
 31
0.0
  0
LINE
  8
0
 62
     0
 10
3.85988
 20
94.3638
 30
0.0
 11
4.44556
 21
94.065
 31
0.0
  0
LINE
  8
0
 62
     0
 10
4.44556
 20
94.065
 30
0.0
 11
5.0946
 21
93.9617
 31
0.0
  0
LINE
  8
0
 62
     0
 10
5.0946
 20
93.9617
 30
0.0
 11
5.74227
 21
94.065
 31
0.0
  0
LINE
  8
0
 62
     0
 10
5.74227
 20
94.065
 30
0.0
 11
6.32933
 21
94.3638
 31
0.0
  0
LINE
  8
0
 62
     0
 10
6.32933
 20
94.3638
 30
0.0
 11
6.79235
 21
94.827
 31
0.0
  0
LINE
  8
0
 62
     0
 10
6.79235
 20
94.827
 30
0.0
 11
7.0914
 21
95.414
 31
0.0
  0
LINE
  8
0
 62
     0
 10
7.0914
 20
95.414
 30
0.0
 11
7.19473
 21
96.0617
 31
0.0
  0
LINE
  8
0
 62
     0
 10
7.19473
 20
96.0617
 30
0.0
 11
7.0914
 21
96.7109
 31
0.0
  0
LINE
  8
0
 62
     0
 10
7.0914
 20
96.7109
 30
0.0
 11
6.79235
 21
97.2965
 31
0.0
  0
LINE
  8
0
 62
     0
 10
6.79235
 20
97.2965
 30
0.0
 11
6.32933
 21
97.7607
 31
0.0
  0
LINE
  8
0
 62
     0
 10
6.32933
 20
97.7607
 30
0.0
 11
5.74227
 21
98.0599
 31
0.0
  0
LINE
  8
0
 62
     0
 10
5.74227
 20
98.0599
 30
0.0
 11
5.0946
 21
98.1618
 31
0.0
  0
LINE
  8
0
 62
     0
 10
5.0946
 20
98.1618
 30
0.0
 11
4.44556
 21
98.0599
 31
0.0
  0
LINE
  8
0
 62
     0
 10
75.8843
 20
98.0599
 30
0.0
 11
75.2972
 21
97.7607
 31
0.0
  0
LINE
  8
0
 62
     0
 10
75.2972
 20
97.7607
 30
0.0
 11
74.8344
 21
97.2965
 31
0.0
  0
LINE
  8
0
 62
     0
 10
74.8344
 20
97.2965
 30
0.0
 11
74.5352
 21
96.7109
 31
0.0
  0
LINE
  8
0
 62
     0
 10
74.5352
 20
96.7109
 30
0.0
 11
74.4333
 21
96.0617
 31
0.0
  0
LINE
  8
0
 62
     0
 10
74.4333
 20
96.0617
 30
0.0
 11
74.5352
 21
95.414
 31
0.0
  0
LINE
  8
0
 62
     0
 10
74.5352
 20
95.414
 30
0.0
 11
74.8344
 21
94.827
 31
0.0
  0
LINE
  8
0
 62
     0
 10
74.8344
 20
94.827
 30
0.0
 11
75.2972
 21
94.3638
 31
0.0
  0
LINE
  8
0
 62
     0
 10
75.2972
 20
94.3638
 30
0.0
 11
75.8843
 21
94.065
 31
0.0
  0
LINE
  8
0
 62
     0
 10
75.8843
 20
94.065
 30
0.0
 11
76.532
 21
93.9617
 31
0.0
  0
LINE
  8
0
 62
     0
 10
76.532
 20
93.9617
 30
0.0
 11
77.1811
 21
94.065
 31
0.0
  0
LINE
  8
0
 62
     0
 10
77.1811
 20
94.065
 30
0.0
 11
77.7667
 21
94.3638
 31
0.0
  0
LINE
  8
0
 62
     0
 10
77.7667
 20
94.3638
 30
0.0
 11
78.2313
 21
94.827
 31
0.0
  0
LINE
  8
0
 62
     0
 10
78.2313
 20
94.827
 30
0.0
 11
78.5301
 21
95.414
 31
0.0
  0
LINE
  8
0
 62
     0
 10
78.5301
 20
95.414
 30
0.0
 11
78.6324
 21
96.0617
 31
0.0
  0
LINE
  8
0
 62
     0
 10
78.6324
 20
96.0617
 30
0.0
 11
78.5301
 21
96.7109
 31
0.0
  0
LINE
  8
0
 62
     0
 10
78.5301
 20
96.7109
 30
0.0
 11
78.2313
 21
97.2965
 31
0.0
  0
LINE
  8
0
 62
     0
 10
78.2313
 20
97.2965
 30
0.0
 11
77.7667
 21
97.7607
 31
0.0
  0
LINE
  8
0
 62
     0
 10
77.7667
 20
97.7607
 30
0.0
 11
77.1811
 21
98.0599
 31
0.0
  0
LINE
  8
0
 62
     0
 10
77.1811
 20
98.0599
 30
0.0
 11
76.532
 21
98.1618
 31
0.0
  0
LINE
  8
0
 62
     0
 10
76.532
 20
98.1618
 30
0.0
 11
75.8843
 21
98.0599
 31
0.0
  0
LINE
  8
0
 62
     0
 10
147.322
 20
98.0599
 30
0.0
 11
146.736
 21
97.7607
 31
0.0
  0
LINE
  8
0
 62
     0
 10
146.736
 20
97.7607
 30
0.0
 11
146.272
 21
97.2965
 31
0.0
  0
LINE
  8
0
 62
     0
 10
146.272
 20
97.2965
 30
0.0
 11
145.973
 21
96.7109
 31
0.0
  0
LINE
  8
0
 62
     0
 10
145.973
 20
96.7109
 30
0.0
 11
145.869
 21
96.0617
 31
0.0
  0
LINE
  8
0
 62
     0
 10
145.869
 20
96.0617
 30
0.0
 11
145.973
 21
95.414
 31
0.0
  0
LINE
  8
0
 62
     0
 10
145.973
 20
95.414
 30
0.0
 11
146.272
 21
94.827
 31
0.0
  0
LINE
  8
0
 62
     0
 10
146.272
 20
94.827
 30
0.0
 11
146.736
 21
94.3638
 31
0.0
  0
LINE
  8
0
 62
     0
 10
146.736
 20
94.3638
 30
0.0
 11
147.322
 21
94.065
 31
0.0
  0
LINE
  8
0
 62
     0
 10
147.322
 20
94.065
 30
0.0
 11
147.971
 21
93.9617
 31
0.0
  0
LINE
  8
0
 62
     0
 10
147.971
 20
93.9617
 30
0.0
 11
148.619
 21
94.065
 31
0.0
  0
LINE
  8
0
 62
     0
 10
148.619
 20
94.065
 30
0.0
 11
149.204
 21
94.3638
 31
0.0
  0
LINE
  8
0
 62
     0
 10
149.204
 20
94.3638
 30
0.0
 11
149.669
 21
94.827
 31
0.0
  0
LINE
  8
0
 62
     0
 10
149.669
 20
94.827
 30
0.0
 11
149.968
 21
95.414
 31
0.0
  0
LINE
  8
0
 62
     0
 10
149.968
 20
95.414
 30
0.0
 11
150.071
 21
96.0617
 31
0.0
  0
LINE
  8
0
 62
     0
 10
150.071
 20
96.0617
 30
0.0
 11
149.968
 21
96.7109
 31
0.0
  0
LINE
  8
0
 62
     0
 10
149.968
 20
96.7109
 30
0.0
 11
149.669
 21
97.2965
 31
0.0
  0
LINE
  8
0
 62
     0
 10
149.669
 20
97.2965
 30
0.0
 11
149.204
 21
97.7607
 31
0.0
  0
LINE
  8
0
 62
     0
 10
149.204
 20
97.7607
 30
0.0
 11
148.619
 21
98.0599
 31
0.0
  0
LINE
  8
0
 62
     0
 10
148.619
 20
98.0599
 30
0.0
 11
147.971
 21
98.1618
 31
0.0
  0
LINE
  8
0
 62
     0
 10
147.971
 20
98.1618
 30
0.0
 11
147.322
 21
98.0599
 31
0.0
  0
ENDSEC
  0
EOF
